<svg height="682.667" viewBox="0 0 512 512" width="682.667" xmlns="http://www.w3.org/2000/svg"><path d="m49 36.8c-.6.2-1 6.4-1 15.8v15.4h70.7l5.1 11.2c20.4 45.6 28.3 63.1 30.7 68.3 1.5 3.3 4.3 9.6 6.2 14 2 4.4 4.7 10.5 6 13.5 3.7 8 10.3 23.1 10.3 23.3 0 .1-29 .2-64.5.2h-64.5v31.2h91.5c50.3 0 91.3-.2 91.1-.6-.8-1.5-6.3-13.6-17.4-38.6-19.5-43.7-37.7-84.5-41.1-91.8-1.7-3.7-3.1-6.9-3.1-7.2 0-.2-1.8-4.3-4.1-9.2a3020 3020 0 0 1 -12.1-26.8c-4.4-9.9-8.1-18.2-8.3-18.3-.5-.5-94.2-.8-95.5-.4zm292.8.3c-.7.4-1 25.6-1 73.3 0 39.9-.4 72.6-.8 72.6s-3.3-2.8-6.5-6.3c-3.2-3.4-10.8-11.6-16.9-18.2s-14.4-15.6-18.5-20c-11.8-12.8-8.5-11.6-31.3-11.5-22.1.2-20.9-.4-14.3 6.5 1.7 1.8 6.8 7.3 11.5 12.4s10.1 10.9 12 13c1.9 2 6.7 7.1 10.5 11.2 3.9 4.1 12.2 13.1 18.7 19.9 6.4 6.9 12.9 13.8 14.4 15.5 1.5 1.6 7.2 7.8 12.7 13.7l10 10.8h29.3l8.6-9.3c4.7-5 10.3-11.1 12.4-13.3 2.2-2.3 8.2-8.7 13.4-14.4 5.2-5.6 11.3-12.1 13.5-14.5 2.2-2.3 6.5-6.9 9.5-10.2 3-3.2 11.2-12 18.1-19.4s14.2-15.3 16.2-17.5l3.7-4.2h-41l-3.6 4.2c-2 2.2-6.1 6.8-9.2 10.1-3.2 3.4-10.9 11.6-17.2 18.4s-14 15.1-17.1 18.4l-5.7 6v-73.2c0-40.3-.2-73.5-.6-73.8-.8-.8-29.5-1-30.8-.2zm-291.5 249.7-2.3.3v192.7l15.2-.1h15.2l80-53.3 79.9-53.2-16-8.1-16-8-62.6 41.8c-34.5 23-62.8 41.3-63 40.7s-.3-35.2-.2-76.9v-75.7l-3.5-.1c-1.9 0-8.2-.1-14-.2s-11.5-.1-12.7.1zm344.7 0c-.7.2-1 22.8-1 64.3v63.9h33l-.1-64-.1-64h-2.6c-1.5-.1-8.4-.2-15.5-.3-7-.1-13.2-.1-13.7.1zm-104.3 65.1c-.2.3-.3 29.2-.3 64.1l.1 63.5 16.3.2 16.2.2.1-4.2c.1-4.9.1-117.9 0-121.9l-.1-2.7-16 .1c-8.9 0-16.2.4-16.3.7zm51.9 1c-.2.9-.4 15.2-.4 31.8v30.3h32.8v-63.8h-16c-13.9 0-16 .3-16.4 1.7z"/></svg>